<svg xmlns="http://www.w3.org/2000/svg" viewBox="0 0 200 200" role="img" aria-label="Kaplumbağa: Yürüyen kaplumbağa">
<title>Kaplumbağa: Yürüyen kaplumbağa</title>
<circle cx="100" cy="100" r="98" fill="#e6f5e4"/>
<ellipse cx="100" cy="172" rx="70" ry="15" fill="#dcbf7c"/><ellipse cx="100" cy="168" rx="66" ry="11" fill="#f3dca6"/><ellipse cx="54" cy="164" rx="16" ry="10" fill="#a6d86e" stroke="#78b443" stroke-width="3"/><ellipse cx="146" cy="164" rx="16" ry="10" fill="#a6d86e" stroke="#78b443" stroke-width="3"/><path d="M40 160 C40 104 160 104 160 160Z" fill="#4a9e5c" stroke="#2f7a43" stroke-width="4" stroke-linejoin="round"/><path d="M100 124 L114 132 L114 148 L100 156 L86 148 L86 132Z M64 142 L76 136 L86 148 M136 142 L124 136 L114 148 M100 124 L100 112 M76 136 L70 122 M124 136 L130 122" fill="#8fd19a" stroke="#2f7a43" stroke-width="3" stroke-linejoin="round"/><rect x="38" y="156" width="124" height="10" rx="5" fill="#f0e2a8" stroke="#2f7a43" stroke-width="3"/><circle cx="100" cy="88" r="30" fill="#a6d86e" stroke="#78b443" stroke-width="3"/><circle cx="88" cy="85" r="8.100000000000001" fill="#fff"/><circle cx="89.215" cy="85.81" r="4.86" fill="#2b2d42"/><circle cx="90.835" cy="82.975" r="1.7820000000000003" fill="#fff"/><circle cx="112" cy="85" r="8.100000000000001" fill="#fff"/><circle cx="113.215" cy="85.81" r="4.86" fill="#2b2d42"/><circle cx="114.835" cy="82.975" r="1.7820000000000003" fill="#fff"/><ellipse cx="82" cy="98.5" rx="6" ry="4" fill="#ff9fb0" opacity=".7"/><ellipse cx="118" cy="98.5" rx="6" ry="4" fill="#ff9fb0" opacity=".7"/><path d="M94 100 Q100 104.8 106 100" fill="none" stroke="#2b2d42" stroke-width="3" stroke-linecap="round"/>
</svg>
