<svg xmlns="http://www.w3.org/2000/svg" viewBox="0 0 200 200" role="img" aria-label="Baykuş: Tüylü yavru">
<title>Baykuş: Tüylü yavru</title>
<circle cx="100" cy="100" r="98" fill="#fff3e0"/>
<ellipse cx="100" cy="178" rx="56" ry="8" fill="#000" opacity=".08"/>
<circle cx="100" cy="118" r="50" fill="#bcaaa4"/><path d="M92 70 q8 -18 16 0" fill="#bcaaa4"/><circle cx="84" cy="108" r="16" fill="#fff8e1"/><circle cx="116" cy="108" r="16" fill="#fff8e1"/><circle cx="84" cy="108" r="10" fill="#fff"/><circle cx="85.5" cy="109" r="6" fill="#2b2b3a"/><circle cx="87.5" cy="105.5" r="2.2" fill="#fff"/><circle cx="116" cy="108" r="10" fill="#fff"/><circle cx="117.5" cy="109" r="6" fill="#2b2b3a"/><circle cx="119.5" cy="105.5" r="2.2" fill="#fff"/><path d="M95 122 L105 122 L100 131Z" fill="#ffb300"/><circle cx="72" cy="128" r="5" fill="#ff8a80" opacity=".55"/><circle cx="128" cy="128" r="5" fill="#ff8a80" opacity=".55"/><ellipse cx="88" cy="168" rx="7" ry="5" fill="#ffb300"/><ellipse cx="112" cy="168" rx="7" ry="5" fill="#ffb300"/>
</svg>
