<svg xmlns="http://www.w3.org/2000/svg" viewBox="0 0 200 200" role="img" aria-label="Baykuş: Küçük baykuş">
<title>Baykuş: Küçük baykuş</title>
<circle cx="100" cy="100" r="98" fill="#fff3e0"/>
<ellipse cx="100" cy="178" rx="56" ry="8" fill="#000" opacity=".08"/>
<path d="M62 70 L58 38 L84 58Z M138 70 L142 38 L116 58Z" fill="#8d6e63"/><ellipse cx="100" cy="112" rx="46" ry="54" fill="#8d6e63"/><ellipse cx="100" cy="130" rx="30" ry="32" fill="#d7ccc8"/><path d="M86 128 q4 4 8 0 M106 128 q4 4 8 0 M96 144 q4 4 8 0" fill="none" stroke="#8d6e63" stroke-width="2.5" stroke-linecap="round"/><circle cx="82" cy="86" r="18" fill="#fff8e1"/><circle cx="118" cy="86" r="18" fill="#fff8e1"/><circle cx="82" cy="86" r="11" fill="#fff"/><circle cx="83.65" cy="87.1" r="6.6" fill="#2b2b3a"/><circle cx="85.85" cy="83.25" r="2.42" fill="#fff"/><circle cx="118" cy="86" r="11" fill="#fff"/><circle cx="119.65" cy="87.1" r="6.6" fill="#2b2b3a"/><circle cx="121.85" cy="83.25" r="2.42" fill="#fff"/><path d="M94 100 L106 100 L100 112Z" fill="#ffb300"/><ellipse cx="86" cy="164" rx="7" ry="5" fill="#ffb300"/><ellipse cx="114" cy="164" rx="7" ry="5" fill="#ffb300"/>
</svg>
